<svg width="256" height="256" viewBox="0 0 256 256" fill="none" xmlns="http://www.w3.org/2000/svg">
<path d="M8.48284 43.6763C8.27594 43.65 8.0513 43.5496 7.82666 43.4492C7.88678 43.3546 7.94691 43.2601 8.00703 43.1655C8.15972 43.3111 8.31241 43.4567 8.48284 43.6763Z" fill="#3F3E3E"/>
<path d="M3.3264 47.1377C3.29039 47.0385 3.30255 46.9524 3.31471 46.8662C3.38042 46.8851 3.44613 46.904 3.51183 46.9229C3.46608 46.9988 3.42033 47.0747 3.3264 47.1377Z" fill="#3E3D3D"/>
<path d="M18.1133 61.5764C18.2124 61.5404 18.2986 61.5525 18.3847 61.5647C18.3658 61.6304 18.3469 61.6961 18.328 61.7618C18.2521 61.7161 18.1762 61.6703 18.1133 61.5764Z" fill="#404040"/>
<path d="M3.04903 66.3137C2.99795 66.2899 2.97065 66.2444 2.94336 66.199C2.98651 66.23 3.02966 66.261 3.04903 66.3137Z" fill="#3E3D3D"/>
<path d="M181.906 196.741C181.629 197.022 181.352 197.302 180.984 197.687C180.841 197.86 180.789 197.93 180.737 198C180.737 198 180.752 198.002 180.696 198.027C180.589 198.118 180.538 198.183 180.487 198.249C180.487 198.249 180.502 198.252 180.444 198.277C180.33 198.368 180.272 198.433 180.215 198.498C180.082 198.618 179.949 198.738 179.73 198.955C179.587 199.117 179.531 199.183 179.475 199.249C179.409 199.276 179.352 199.315 179.217 199.452C179.064 199.605 178.999 199.674 178.933 199.743C171.263 205.937 162.208 208.561 152.668 209.968C142.538 211.462 132.34 211.573 122.153 211.161C116.606 210.938 111.059 210.203 105.564 209.36C98.4786 208.273 91.8966 205.774 86.1171 201.241C86.0355 201.217 86.0134 201.221 85.9842 201.167C85.8922 201.046 85.8294 200.978 85.7665 200.91C85.6554 200.787 85.5443 200.664 85.3248 200.441C84.5673 199.727 83.9182 199.112 83.2691 198.498C83.2691 198.498 83.2929 198.49 83.294 198.477C82.9149 197.926 82.5347 197.387 82.0465 196.72C81.3814 195.715 80.8243 194.837 80.2672 193.959C79.8136 192.93 79.36 191.9 78.8345 190.706C78.4164 189.439 78.0702 188.337 77.7267 187.136C77.5777 186.326 77.4261 185.615 77.2814 184.874C77.2883 184.843 77.2775 184.781 77.2741 184.664C77.2365 183.927 77.1592 183.306 77.1754 182.688C77.2648 179.273 77.2515 175.848 77.5305 172.448C77.6875 170.535 78.3397 168.662 78.7708 166.766C78.7728 166.761 78.762 166.757 78.8173 166.736C78.9299 166.658 78.9669 166.59 78.9942 166.461C79.0048 166.411 79.0177 166.309 79.0692 166.251C79.1679 166.045 79.2151 165.897 79.2556 165.751C79.249 165.751 79.2569 165.762 79.3044 165.695C79.4068 165.421 79.4616 165.212 79.5088 165.004C79.5011 165.003 79.5134 165.012 79.5687 164.964C79.6718 164.778 79.7198 164.64 79.76 164.502C79.7524 164.503 79.761 164.515 79.8132 164.464C79.9139 164.275 79.9624 164.138 80.0047 164C79.9984 164 80.0053 164.011 80.0487 163.955C80.1417 163.768 80.1914 163.638 80.2802 163.445C80.3886 163.203 80.4579 163.024 80.6036 162.798C80.9593 162.17 81.2388 161.589 81.5138 161.013C81.5093 161.019 81.524 161.02 81.6023 160.994C81.9284 160.673 82.1763 160.379 82.5399 159.947C78.6941 159.79 75.0972 159.642 71.445 159.448C71.2526 159.364 71.1156 159.326 70.8816 159.278C70.5243 159.256 70.264 159.244 70.0013 159.24C69.9989 159.248 70.0106 159.237 69.9359 159.181C69.1593 158.996 68.4575 158.865 67.7541 158.743C67.7526 158.75 67.7589 158.735 67.6998 158.679C67.428 158.576 67.2153 158.529 67.0026 158.491C67.0027 158.499 67.0134 158.487 66.9522 158.436C66.6842 158.35 66.4775 158.315 66.1776 158.27C63.8109 157.489 61.9056 156.207 60.481 154.172C60.4002 153.981 60.3276 153.861 60.2518 153.746C60.2484 153.751 60.2607 153.751 60.2405 153.683C60.1463 153.496 60.0723 153.377 60.0009 153.254C60.0034 153.251 59.9948 153.25 59.9793 153.181C59.8942 152.987 59.8246 152.864 59.752 152.746C59.7488 152.751 59.7612 152.75 59.7533 152.671C59.7297 152.487 59.7141 152.383 59.6826 152.226C59.6396 152.106 59.5976 152.047 59.529 151.892C59.4961 151.283 59.475 150.783 59.4575 150.19C59.46 149.973 59.4588 149.849 59.4666 149.628C59.4894 149.271 59.503 149.01 59.5092 148.751C59.5016 148.752 59.51 148.764 59.567 148.701C59.6746 148.416 59.7253 148.194 59.8294 147.909C60.7821 145.945 62.157 144.439 63.9503 143.398C65.9226 142.253 67.9631 141.214 70.026 140.24C71.9507 139.33 71.9809 139.394 71.1048 137.384C71.0886 137.347 71.0574 137.316 71.0247 137.196C70.9987 136.997 70.9812 136.884 70.9567 136.7C70.8912 136.5 70.8328 136.372 70.7643 136.14C68.9169 127.592 70.3557 119.795 75.519 112.638C75.0577 112.48 74.7149 112.367 74.3751 112.246C72.8081 111.686 71.2188 111.181 69.6815 110.55C67.7952 109.775 67.1346 108.493 67.3752 106.485C67.6125 104.506 67.8093 102.522 68.0313 100.529C68.0388 100.519 68.0178 100.503 68.0837 100.452C68.1873 100.188 68.225 99.975 68.2648 99.759C68.2668 99.7564 68.2672 99.7499 68.3332 99.6894C68.6861 98.671 68.973 97.7131 69.2555 96.7522C69.251 96.7493 69.2552 96.759 69.3056 96.6947C69.4099 96.4213 69.4638 96.2122 69.51 96.0026C69.5023 96.0022 69.5127 96.0137 69.5655 95.9629C69.6635 95.774 69.7087 95.636 69.7631 95.4598C69.7723 95.4216 69.7752 95.343 69.8274 95.2799C69.9253 95.0623 69.9711 94.9077 70.0092 94.7537C70.0016 94.7542 70.0129 94.7644 70.0674 94.7157C70.1624 94.5283 70.2029 94.3895 70.2943 94.179C71.0838 92.6275 71.7604 91.1127 72.5733 89.6748C74.6516 85.9986 77.2444 82.6938 80.5469 80.0692C82.89 78.2072 85.5069 76.6896 88.0735 75.0027C88.2683 74.9122 88.3911 74.8373 88.508 74.7572C88.5022 74.7521 88.5042 74.7675 88.5768 74.7548C88.7711 74.6653 88.8929 74.5885 89.0087 74.507C89.0027 74.5023 89.003 74.5176 89.0811 74.5051C89.2971 74.4187 89.435 74.3449 89.6186 74.2674C89.6642 74.2636 89.7541 74.2452 89.8224 74.2218C89.9652 74.1375 90.0397 74.0764 90.1455 74.0203C90.1768 74.0252 90.2393 74.0144 90.3126 73.9998C90.5119 73.9107 90.6379 73.8362 90.7577 73.7573C90.7514 73.7529 90.7528 73.7682 90.8348 73.7615C91.1156 73.6728 91.3145 73.5908 91.5073 73.5047C91.5014 73.5006 91.5013 73.515 91.5739 73.5019C91.7679 73.4139 91.8893 73.339 92.0062 73.2573C92.0017 73.2506 92.0056 73.2662 92.0911 73.2656C92.3825 73.1812 92.5883 73.0975 92.8835 72.999C93.6455 72.718 94.318 72.4518 95.0985 72.1936C95.5798 72.1897 95.9589 72.2155 96.3254 72.1594C98.071 71.8922 98.0737 71.8299 97.8607 70.0921C97.7346 69.0638 97.7471 68.0176 97.7149 66.9788C97.6514 64.9302 97.4277 64.7922 95.4009 65.1002C93.5209 65.3859 91.6212 65.5414 89.6605 65.6911C89.1441 65.5804 88.6974 65.5327 88.2515 65.4923C88.2522 65.4996 88.2621 65.4887 88.1935 65.4326C87.8336 65.3227 87.5422 65.2689 87.1937 65.1742C87.0014 65.0984 86.8662 65.0635 86.6488 64.9962C85.7984 64.6542 85.0301 64.3446 84.1839 63.9918C82.2389 61.9106 82.6801 59.2953 85.2282 58.305C86.5023 57.8098 88.0272 57.4583 89.3402 57.6654C92.439 58.1543 95.4721 59.0483 98.5483 59.7004C99.1185 59.8213 99.8627 59.7483 100.36 59.4683C101.805 58.6542 103.165 57.6897 104.651 56.7787C106.153 56.2188 107.562 55.6616 108.973 55.1105C110.805 54.3951 112.629 54.5711 114.371 55.3414C115.286 55.7459 115.658 56.6005 115.8 57.6444C116.006 59.1591 115.154 60.0729 114.184 61.0627C112.029 62.2892 109.983 63.5589 107.413 63.7486C107.139 63.7645 106.957 63.7777 106.705 63.7952C106.505 63.8462 106.375 63.8927 106.135 63.9522C105.53 64.0173 105.035 64.0926 104.538 64.1168C103.5 64.1672 103.096 64.641 103.228 65.712C103.375 66.9049 103.331 68.1203 103.45 69.3179C103.656 71.3864 103.682 71.3838 105.803 71.6148C106.001 71.6711 106.138 71.6932 106.379 71.7243C109.568 72.583 112.654 73.4326 115.793 74.3306C116.064 74.4788 116.283 74.5786 116.589 74.7019C117.54 75.1435 118.402 75.5617 119.308 76.0519C119.654 76.2421 119.957 76.3602 120.301 76.5529C120.787 76.9262 121.259 77.1909 121.67 77.5291C124.384 79.759 127.084 82.0047 129.825 84.3038C129.991 84.4892 130.121 84.616 130.287 84.8048C130.459 84.9951 130.596 85.1234 130.768 85.3046C130.868 85.4094 130.934 85.4613 131.001 85.5061C131.002 85.499 130.988 85.502 131.02 85.5553C131.119 85.6594 131.184 85.7101 131.295 85.8306C132.467 87.3723 133.685 88.7847 134.703 90.329C136.688 93.339 138.407 96.4954 139.327 100.077C139.382 100.186 139.433 100.232 139.489 100.26C139.482 100.255 139.474 100.27 139.485 100.37C139.811 102.652 140.126 104.833 140.388 107.075C139.791 107.758 139.247 108.381 138.654 109.061C138.975 109.42 139.348 109.837 139.773 110.321C140.773 111.79 141.804 113.144 142.655 114.602C146.3 120.846 147.508 127.56 146.246 134.677C145.405 139.419 143.649 143.771 140.459 147.477C139.665 148.4 139.047 149.473 138.256 150.61C142.006 151.354 145.512 152.037 149.013 152.746C157.503 154.467 165.953 156.328 173.966 159.764C174.52 160.001 175.287 159.982 175.89 159.828C179.49 158.913 182.312 156.596 185.167 154.405C186.035 153.738 186.745 153.032 187.895 153.366C189.077 153.709 189.659 154.626 189.766 155.78C190.124 159.665 190.665 163.552 190.698 167.443C190.759 174.552 189.936 181.568 187.244 188.248C187.249 188.252 187.246 188.24 187.201 188.296C187.107 188.483 187.057 188.614 186.995 188.786C186.983 188.826 186.973 188.91 186.917 188.98C186.495 189.783 186.131 190.516 185.755 191.29C185.744 191.331 185.737 191.417 185.688 191.465C185.593 191.592 185.548 191.671 185.502 191.75C185.5 191.75 185.502 191.753 185.453 191.806C185.348 191.989 185.291 192.119 185.242 192.249C185.249 192.249 185.241 192.236 185.187 192.287C185.073 192.475 185.013 192.611 184.903 192.811C184.656 193.259 184.458 193.644 184.26 194.028C183.794 194.55 183.328 195.071 182.753 195.693C182.59 195.862 182.537 195.931 182.484 196C182.412 196.044 182.354 196.103 182.231 196.279C182.069 196.503 181.988 196.622 181.906 196.741ZM95.8838 151.484C95.9295 151.405 95.9751 151.327 96.0058 151.258C96.0058 151.258 96.0157 151.273 96.1637 151.19C96.2105 151.047 96.2573 150.904 96.2976 150.798C96.2976 150.798 96.334 150.804 96.4983 150.74C97.8997 148.407 97.8272 146.003 96.2526 143.961C96.2526 143.961 96.2737 144.002 96.2689 143.837C96.1821 143.797 96.0953 143.756 96.0405 143.747C96.0405 143.747 96.0714 143.715 96.0497 143.543C95.7047 143.262 95.3598 142.981 95.0247 142.727C95.0247 142.727 95.0516 142.716 94.9581 142.566C94.1207 142.221 93.3112 141.696 92.4413 141.561C87.7847 140.84 83.2059 141.282 78.7595 142.709C78.7595 142.709 78.743 142.672 78.5395 142.707C76.5118 143.377 74.4842 144.046 72.4833 144.712C72.4833 144.712 72.4784 144.685 72.3016 144.729C71.7662 144.972 71.2308 145.215 70.7327 145.479C70.7327 145.479 70.7526 145.442 70.5904 145.467C70.4605 145.551 70.3306 145.635 70.2408 145.697C70.2408 145.697 70.2172 145.657 70.0383 145.711C69.2612 146.128 68.4841 146.545 67.7275 146.966C67.7275 146.966 67.7294 146.945 67.5766 146.993C67.3701 147.153 67.1636 147.313 66.9847 147.479C66.9847 147.479 66.9897 147.452 66.8301 147.499C66.7046 147.658 66.579 147.817 66.4759 147.956C66.4759 147.956 66.4553 147.934 66.2793 147.931C66.1681 148.111 66.0569 148.29 65.9726 148.479C65.9726 148.479 65.9805 148.451 65.7943 148.412C65.7625 148.517 65.7306 148.623 65.7223 148.722C65.7223 148.722 65.7147 148.698 65.5289 148.676C64.7631 149.519 64.1083 150.384 64.9468 151.535C64.9468 151.535 64.9343 151.549 64.9958 151.708C66.2011 152.385 67.3319 153.319 68.6247 153.693C74.4114 155.369 80.3551 155.299 86.2938 154.882C87.7881 154.777 89.2574 154.315 90.9108 153.941C91.8737 153.608 92.8366 153.275 93.9045 152.935C93.9592 152.888 93.9971 152.829 94.0205 152.763C94.0205 152.763 94.0254 152.762 94.1741 152.739C94.293 152.666 94.412 152.594 94.5161 152.507C94.5161 152.507 94.5019 152.522 94.6632 152.507C94.7061 152.428 94.749 152.348 94.7612 152.265C94.7612 152.265 94.758 152.296 94.9174 152.354C95.037 152.242 95.1566 152.13 95.26 152.006C95.26 152.006 95.2486 152.022 95.3827 151.981C95.4279 151.903 95.4732 151.826 95.4983 151.749C95.4983 151.749 95.4988 151.769 95.6352 151.735C95.6798 151.656 95.7243 151.577 95.7487 151.499C95.7487 151.499 95.7488 151.519 95.8838 151.484ZM90.2108 109.998C90.6086 110.077 91.0056 110.218 91.4045 110.224C94.977 110.277 98.5536 110.425 102.121 110.308C105.804 110.188 109.478 109.804 113.383 109.5C115.718 109.165 118.064 108.891 120.386 108.481C125.356 107.604 130.25 106.42 135.109 104.596C134.937 103.856 134.812 103.132 134.602 102.435C132.58 95.7373 128.884 90.1544 123.546 85.6144C119.257 81.9669 114.539 79.153 109.1 77.6073C106.19 76.7801 103.225 76.5556 100.012 76.7645C96.0195 77.122 92.2474 78.2601 88.8594 80.3784C79.528 86.2128 74.0728 94.598 72.5827 105.54C72.4628 106.422 72.9062 106.589 73.5349 106.808C78.8703 108.664 84.4102 109.438 90.2108 109.998ZM140.755 135.875C141.589 132.513 141.979 129.143 141.357 125.677C140.635 121.655 139.01 118.066 136.491 114.884C135.493 113.624 134.371 112.457 133.239 111.314C132.998 111.07 132.421 110.949 132.077 111.047C123.622 113.448 115.005 114.818 106.233 115.321C98.769 115.749 91.3456 115.526 83.9642 114.303C80.9659 113.807 80.9461 113.772 79.2318 116.305C74.7038 122.995 73.7712 130.122 76.6513 137.783C76.9846 137.714 77.2622 137.67 77.5335 137.6C82.7176 136.273 87.9262 135.384 93.2878 136.492C101.381 138.165 105.107 147.585 100.189 154.088C97.6843 157.399 94.0096 158.604 90.1227 159.192C89.1301 159.342 88.5507 159.702 88.0298 160.449C83.626 166.766 81.52 173.749 82.046 181.453C82.281 184.896 83.0059 188.238 84.6788 191.32C87.6978 196.88 92.4877 200.219 98.3267 202.244C106.665 205.135 115.354 205.957 124.074 206.168C131.05 206.336 138.047 206.057 145.022 205.709C151.161 205.402 157.23 204.366 163.093 202.468C169.181 200.497 174.947 197.847 178.828 192.459C180.458 190.197 181.881 187.702 182.927 185.123C185.058 179.865 185.545 174.249 185.705 168.63C185.781 165.957 185.59 163.277 185.52 160.568C183.638 161.672 181.956 162.721 180.216 163.664C177.144 165.33 174.182 165.56 170.75 164.084C162.263 160.434 153.164 158.86 144.165 156.986C140.929 156.312 137.725 155.441 134.562 154.476C132.512 153.851 131.828 152.61 132.29 150.67C132.491 149.825 133.022 148.987 133.599 148.315C136.731 144.669 139.418 140.779 140.755 135.875Z" fill="black"/>
<path d="M85.7964 200.973C85.8294 200.978 85.8922 201.046 85.9807 201.178C85.9463 201.173 85.8863 201.104 85.7964 200.973Z" fill="#4B4A48"/>
<path d="M158.064 67.2021C158.04 67.2532 157.994 67.2804 157.949 67.3077C157.98 67.2646 158.011 67.2215 158.064 67.2021Z" fill="#474543"/>
<path d="M181.969 196.7C181.988 196.622 182.07 196.503 182.203 196.335C182.18 196.41 182.106 196.535 181.969 196.7Z" fill="#53504D"/>
<path d="M178.994 199.705C178.998 199.674 179.064 199.605 179.188 199.496C179.183 199.526 179.119 199.597 178.994 199.705Z" fill="#53504D"/>
<path d="M179.527 199.211C179.531 199.183 179.587 199.117 179.696 199.013C179.693 199.041 179.636 199.107 179.527 199.211Z" fill="#53504D"/>
<path d="M180.269 198.462C180.272 198.433 180.33 198.368 180.443 198.27C180.441 198.3 180.381 198.362 180.269 198.462Z" fill="#53504D"/>
<path d="M180.536 198.211C180.538 198.183 180.59 198.117 180.695 198.019C180.703 198.056 180.649 198.118 180.536 198.211Z" fill="#53504D"/>
<path d="M180.787 197.958C180.789 197.93 180.841 197.86 180.945 197.75C180.944 197.779 180.891 197.848 180.787 197.958Z" fill="#53504D"/>
<path d="M182.535 195.959C182.537 195.931 182.59 195.863 182.696 195.754C182.694 195.783 182.64 195.851 182.535 195.959Z" fill="#53504D"/>
<path d="M140.743 135.977C139.418 140.779 136.731 144.669 133.6 148.315C133.022 148.988 132.492 149.825 132.29 150.67C131.829 152.61 132.512 153.851 134.563 154.476C137.725 155.441 140.929 156.312 144.165 156.986C153.164 158.86 162.263 160.434 170.75 164.084C174.182 165.56 177.144 165.33 180.217 163.664C181.956 162.721 183.638 161.672 185.52 160.568C185.591 163.277 185.781 165.957 185.705 168.63C185.545 174.249 185.058 179.865 182.927 185.123C181.881 187.702 180.458 190.197 178.828 192.459C174.947 197.847 169.181 200.497 163.093 202.468C157.23 204.366 151.161 205.402 145.022 205.709C138.047 206.058 131.05 206.336 124.074 206.168C115.355 205.957 106.665 205.135 98.3268 202.244C92.4879 200.219 87.6979 196.88 84.6789 191.32C83.006 188.239 82.2811 184.896 82.0461 181.453C81.5201 173.749 83.6261 166.766 88.0299 160.449C88.5509 159.702 89.1302 159.342 90.1228 159.192C94.0097 158.604 97.6844 157.399 100.189 154.088C105.107 147.586 101.381 138.165 93.2879 136.492C87.9264 135.384 82.7177 136.273 77.5336 137.6C77.2623 137.67 76.9848 137.714 76.6514 137.783C73.7713 130.122 74.704 122.995 79.232 116.305C80.9463 113.772 80.966 113.807 83.9643 114.303C91.3457 115.526 98.7691 115.749 106.233 115.321C115.005 114.818 123.622 113.448 132.077 111.047C132.421 110.949 132.998 111.07 133.239 111.314C134.371 112.458 135.493 113.625 136.491 114.884C139.01 118.066 140.635 121.656 141.357 125.677C141.979 129.143 141.589 132.513 140.743 135.977ZM134.434 161.683C128.412 159.614 122.256 158.578 115.895 159.52C109.92 160.406 104.762 162.895 100.939 167.71C98.1712 171.196 96.8833 175.196 97.6866 179.624C99.1084 187.462 104.156 192.375 111.149 195.485C118.78 198.879 126.946 199.792 135.166 199.911C139.883 199.979 144.628 199.484 149.328 198.951C153.718 198.454 157.996 197.323 162.043 195.467C166.241 193.543 167.408 190.929 165.991 186.585C165.044 183.683 163.39 181.189 161.329 178.978C153.88 170.989 144.82 165.48 134.434 161.683ZM85.7995 129.241C86.0829 129 86.4089 128.794 86.6423 128.512C87.5288 127.441 87.7869 126.249 87.1989 124.942C86.6275 123.673 85.4279 122.917 84.0149 123.003C82.6368 123.086 81.5602 123.684 81.0241 125.031C80.5002 126.347 80.6771 127.572 81.6741 128.586C82.7981 129.729 84.1201 130.072 85.7995 129.241ZM103.937 124.332C103.795 124.583 103.621 124.822 103.516 125.088C102.864 126.734 103.515 128.451 105.099 129.303C106.552 130.084 108.303 129.683 109.285 128.345C110.293 126.972 110.074 125.05 108.776 123.863C107.414 122.617 105.965 122.705 103.937 124.332Z" fill="#FBBF24"/>
<path d="M100.218 76.7853C103.225 76.5556 106.19 76.7801 109.1 77.6073C114.539 79.153 119.257 81.9669 123.546 85.6144C128.884 90.1544 132.58 95.7373 134.602 102.435C134.812 103.132 134.937 103.856 135.109 104.596C130.25 106.42 125.356 107.604 120.386 108.481C118.064 108.891 115.718 109.165 113.201 109.437C112.744 106.575 112.704 103.729 112.152 100.986C110.593 93.2475 107.5 86.1285 102.823 79.7443C102.114 78.7772 101.123 78.0171 100.266 77.0975C100.251 76.951 100.235 76.8681 100.218 76.7853Z" fill="#EAB308"/>
<path d="M100.263 77.1611C101.124 78.017 102.114 78.7771 102.823 79.7442C107.5 86.1284 110.593 93.2474 112.152 100.986C112.704 103.729 112.744 106.575 113.087 109.455C109.478 109.804 105.804 110.188 102.121 110.308C98.5537 110.424 94.977 110.277 91.4046 110.224C91.0056 110.218 90.6087 110.076 90.1093 109.873C90.0907 109.353 90.1975 108.961 90.2525 108.562C90.6767 105.484 90.959 102.379 91.5343 99.3302C92.9023 92.0797 95.3029 85.1778 98.9752 78.7521C99.3094 78.1674 99.8295 77.6889 100.263 77.1611Z" fill="#2563EB"/>
<path d="M100.266 77.0976C99.8294 77.689 99.3092 78.1675 98.9751 78.7522C95.3027 85.1779 92.9021 92.0798 91.5342 99.3303C90.9589 102.38 90.6765 105.484 90.2524 108.562C90.1974 108.961 90.0906 109.353 90.0041 109.85C84.4101 109.438 78.8702 108.664 73.5348 106.808C72.9061 106.589 72.4627 106.422 72.5826 105.54C74.0727 94.598 79.5279 86.2128 88.8593 80.3784C92.2473 78.2601 96.0194 77.122 100.115 76.7749C100.235 76.8681 100.251 76.951 100.266 77.0976Z" fill="#DC2626"/>
<path d="M93.7995 152.942C92.8366 153.275 91.8737 153.608 90.7169 153.974C86.8755 155.189 82.497 155.339 78.5005 155.25C73.8117 155.147 70.8685 155.674 66.7505 152.875C66.7505 152.875 65.3755 152.375 64.9684 151.434C64.2505 150.375 64.509 150.254 64.7505 149.375C64.7505 149.375 65.7223 148.721 65.7645 148.686C65.8647 148.585 65.9226 148.518 65.9805 148.451C65.9805 148.451 65.9726 148.479 66.0261 148.438C66.2048 148.242 66.33 148.088 66.4553 147.934C66.4553 147.934 66.4759 147.956 66.5331 147.931C66.7234 147.754 66.8565 147.603 66.9897 147.452C66.9897 147.452 66.9847 147.479 67.055 147.47C67.3267 147.288 67.5281 147.117 67.7294 146.945C67.7294 146.945 67.7276 146.966 67.8128 146.968C68.6711 146.533 69.4442 146.095 70.2173 145.657C70.2173 145.657 70.2408 145.697 70.299 145.695C70.489 145.609 70.6208 145.526 70.7527 145.442C70.7527 145.442 70.7327 145.479 70.812 145.474C71.4203 145.208 71.9494 144.946 72.4785 144.685C72.4785 144.685 72.4833 144.712 72.5734 144.722C73.8199 144.402 74.6106 143.88 75.7505 143.5C76.6407 143.204 77.873 143.029 78.743 142.672C78.743 142.672 79.1608 142.487 79.2505 142.5C79.9928 142.423 80.2226 142.089 80.8755 142C83.2474 141.68 82.3848 141.459 84.7505 141.5C86.4896 140.917 91.7505 141.125 93.7505 141.875C93.7505 141.875 95.3471 142.812 95.3755 142.875C95.7339 143.226 95.7415 143.428 96.0714 143.715C96.0714 143.715 96.0405 143.747 96.0655 143.782C96.1516 143.879 96.2126 143.94 96.2737 144.002C96.2737 144.002 96.2526 143.961 96.2671 144.05C96.8755 145 97.5005 145 97.5005 147.875C97.531 148.816 97.167 149.697 96.6255 150.5C96.6255 150.5 96.2976 150.798 96.245 150.831C96.1335 151.001 96.0746 151.137 96.0157 151.273C96.0157 151.273 96.0058 151.258 95.9643 151.295C95.8648 151.394 95.8069 151.456 95.7489 151.519C95.7489 151.519 95.7487 151.499 95.71 151.54C95.6138 151.644 95.5563 151.706 95.4988 151.769C95.4988 151.769 95.4983 151.749 95.4601 151.791C95.3642 151.896 95.3064 151.959 95.2486 152.022C95.2486 152.022 95.26 152.006 95.1944 152.027C95.0052 152.13 94.8816 152.213 94.758 152.296C94.758 152.296 94.7612 152.265 94.7208 152.3C94.6208 152.397 94.5614 152.46 94.5019 152.522C94.5019 152.522 94.5161 152.507 94.4498 152.519C94.2641 152.609 94.1447 152.685 94.0254 152.762C94.0254 152.762 94.0205 152.763 93.9844 152.794C93.8917 152.855 93.8421 152.894 93.7995 152.942Z" fill="#F59E0B"/>
<path d="M86.6489 64.9963C85.9271 64.7492 85.1231 64.4696 84.2905 64.1125C85.0302 64.3447 85.7984 64.6543 86.6489 64.9963Z" fill="#53504D"/>
<path d="M70.1278 145.684C69.4442 146.095 68.6711 146.533 67.8025 146.967C68.4841 146.545 69.2612 146.128 70.1278 145.684Z" fill="#FFBE22"/>
<path d="M80.6035 162.798C80.8156 162.27 81.104 161.695 81.4552 161.063C81.2387 161.589 80.9593 162.17 80.6035 162.798Z" fill="#53504D"/>
<path d="M69.9358 159.182C69.3066 159.109 68.6027 158.982 67.8271 158.794C68.4573 158.865 69.1592 158.996 69.9358 159.182Z" fill="#53504D"/>
<path d="M77.7267 187.136C77.5707 186.535 77.4174 185.834 77.2693 185.019C77.4261 185.615 77.5777 186.326 77.7267 187.136Z" fill="#53504D"/>
<path d="M72.3901 144.707C71.9495 144.947 71.4204 145.208 70.7935 145.464C71.231 145.216 71.7663 144.972 72.3901 144.707Z" fill="#FFBE22"/>
<path d="M59.529 151.892C59.4827 151.479 59.4246 150.958 59.4102 150.36C59.4749 150.783 59.4961 151.283 59.529 151.892Z" fill="#53504D"/>
<path d="M89.6607 65.6913C89.2884 65.7018 88.8464 65.6493 88.3276 65.5409C88.6976 65.5328 89.1443 65.5805 89.6607 65.6913Z" fill="#53504D"/>
<path d="M70.8816 159.278C70.6933 159.303 70.4081 159.318 70.0632 159.283C70.264 159.244 70.5243 159.256 70.8816 159.278Z" fill="#53504D"/>
<path d="M88.1935 65.4325C87.9706 65.4366 87.6793 65.3844 87.3193 65.2737C87.5422 65.2689 87.8335 65.3227 88.1935 65.4325Z" fill="#53504D"/>
<path d="M59.4665 149.628C59.4437 149.44 59.4298 149.155 59.4663 148.81C59.5029 149.01 59.4892 149.271 59.4665 149.628Z" fill="#53504D"/>
<path d="M67.653 146.969C67.528 147.117 67.3267 147.288 67.0413 147.467C67.1636 147.313 67.3701 147.153 67.653 146.969Z" fill="#FFBE22"/>
<path d="M79.3042 165.695C79.3083 165.551 79.3598 165.341 79.4638 165.067C79.4615 165.212 79.4066 165.421 79.3042 165.695Z" fill="#53504D"/>
<path d="M92.0911 73.2656C92.2107 73.1827 92.4159 73.0991 92.7076 73.0146C92.5882 73.0975 92.3824 73.1812 92.0911 73.2656Z" fill="#53504D"/>
<path d="M90.8347 73.7615C90.9507 73.6837 91.1487 73.5992 91.43 73.5117C91.3144 73.5908 91.1156 73.6728 90.8347 73.7615Z" fill="#53504D"/>
<path d="M107.413 63.7485C107.298 63.7862 107.092 63.8268 106.831 63.829C106.957 63.7776 107.139 63.7645 107.413 63.7485Z" fill="#4D4C4B"/>
<path d="M129.824 84.3037C129.928 84.3654 130.068 84.4856 130.229 84.6742C130.121 84.6159 129.991 84.4891 129.824 84.3037Z" fill="#53504D"/>
<path d="M67.6998 158.679C67.549 158.686 67.3391 158.637 67.0659 158.535C67.2153 158.529 67.428 158.576 67.6998 158.679Z" fill="#53504D"/>
<path d="M66.9521 158.436C66.8088 158.448 66.6042 158.409 66.3352 158.325C66.4774 158.315 66.6842 158.35 66.9521 158.436Z" fill="#53504D"/>
<path d="M68.0835 100.452C68.065 100.297 68.1124 100.091 68.2112 99.8237C68.2249 99.9751 68.1871 100.188 68.0835 100.452Z" fill="#53504D"/>
<path d="M69.3057 96.6947C69.3076 96.5491 69.3598 96.3392 69.465 96.0662C69.4639 96.2122 69.41 96.4213 69.3057 96.6947Z" fill="#53504D"/>
<path d="M66.91 147.475C66.8566 147.603 66.7235 147.754 66.522 147.941C66.5791 147.817 66.7047 147.658 66.91 147.475Z" fill="#FFBE22"/>
<path d="M66.3674 147.933C66.3301 148.088 66.2049 148.242 66.0127 148.433C66.057 148.29 66.1682 148.111 66.3674 147.933Z" fill="#FFBE22"/>
<path d="M59.5671 148.701C59.5632 148.546 59.6163 148.327 59.7227 148.041C59.7254 148.194 59.6747 148.416 59.5671 148.701Z" fill="#53504D"/>
<path d="M88.5767 74.7547C88.6264 74.6913 88.7486 74.6152 88.9427 74.5254C88.8928 74.5884 88.771 74.6652 88.5767 74.7547Z" fill="#53504D"/>
<path d="M91.5737 73.5018C91.6233 73.4402 91.7455 73.3655 91.9391 73.2773C91.8891 73.3389 91.7677 73.4138 91.5737 73.5018Z" fill="#53504D"/>
<path d="M185.453 191.806C185.446 191.884 185.39 192.015 185.284 192.198C185.291 192.119 185.348 191.989 185.453 191.806Z" fill="#53504D"/>
<path d="M185.187 192.287C185.183 192.372 185.124 192.509 185.009 192.696C185.013 192.611 185.073 192.474 185.187 192.287Z" fill="#53504D"/>
<path d="M89.0811 74.5051C89.1396 74.4419 89.2761 74.3662 89.4928 74.2808C89.4349 74.3449 89.297 74.4187 89.0811 74.5051Z" fill="#53504D"/>
<path d="M71.0248 137.197C70.989 137.144 70.9447 137.006 70.9321 136.819C70.9813 136.884 70.9988 136.997 71.0248 137.197Z" fill="#53504D"/>
<path d="M96.0897 151.231C96.0746 151.137 96.1334 151.001 96.2482 150.813C96.2573 150.904 96.2105 151.047 96.0897 151.231Z" fill="#FFBE22"/>
<path d="M90.3125 73.9997C90.3655 73.9394 90.4917 73.8645 90.6909 73.7756C90.6378 73.8361 90.5118 73.9106 90.3125 73.9997Z" fill="#53504D"/>
<path d="M94.8376 152.325C94.8815 152.213 95.0051 152.13 95.2024 152.032C95.1565 152.13 95.037 152.242 94.8376 152.325Z" fill="#FFBE22"/>
<path d="M59.7533 152.671C59.721 152.623 59.6807 152.496 59.6694 152.324C59.7141 152.383 59.7298 152.487 59.7533 152.671Z" fill="#53504D"/>
<path d="M94.0996 152.75C94.1446 152.685 94.2639 152.609 94.457 152.527C94.4118 152.594 94.2929 152.666 94.0996 152.75Z" fill="#FFBE22"/>
<path d="M59.9792 153.181C59.9243 153.127 59.8539 153.005 59.7693 152.811C59.8246 152.864 59.8941 152.988 59.9792 153.181Z" fill="#53504D"/>
<path d="M187.201 188.296C187.197 188.373 187.148 188.505 187.053 188.692C187.057 188.614 187.107 188.483 187.201 188.296Z" fill="#53504D"/>
<path d="M60.2407 153.683C60.1852 153.632 60.1095 153.514 60.0161 153.326C60.0724 153.377 60.1465 153.496 60.2407 153.683Z" fill="#53504D"/>
<path d="M60.4809 154.172C60.4202 154.122 60.3512 154.001 60.2686 153.81C60.3275 153.861 60.4 153.981 60.4809 154.172Z" fill="#53504D"/>
<path d="M79.0691 166.251C79.0651 166.162 79.1126 166.015 79.2111 165.809C79.215 165.898 79.1678 166.045 79.0691 166.251Z" fill="#53504D"/>
<path d="M70.6714 145.454C70.6207 145.526 70.4889 145.609 70.2788 145.707C70.3305 145.635 70.4603 145.551 70.6714 145.454Z" fill="#FFBE22"/>
<path d="M79.5686 164.964C79.5647 164.878 79.6161 164.743 79.7175 164.555C79.7196 164.64 79.6717 164.778 79.5686 164.964Z" fill="#53504D"/>
<path d="M69.5655 95.9629C69.5611 95.8783 69.6096 95.7429 69.706 95.5527C69.7087 95.636 69.6635 95.774 69.5655 95.9629Z" fill="#53504D"/>
<path d="M88.0735 75.0028C88.1242 74.9422 88.2469 74.866 88.4417 74.7761C88.391 74.8374 88.2682 74.9123 88.0735 75.0028Z" fill="#53504D"/>
<path d="M69.8272 95.2799C69.8209 95.1879 69.8668 95.0328 69.9647 94.8154C69.9709 94.9077 69.9252 95.0623 69.8272 95.2799Z" fill="#53504D"/>
<path d="M79.813 164.464C79.8111 164.38 79.8614 164.244 79.9612 164.054C79.9622 164.138 79.9137 164.275 79.813 164.464Z" fill="#53504D"/>
<path d="M80.0488 163.955C80.0533 163.879 80.101 163.746 80.195 163.561C80.1915 163.638 80.1419 163.768 80.0488 163.955Z" fill="#53504D"/>
<path d="M70.0673 94.7159C70.0592 94.6301 70.1055 94.4958 70.1976 94.3062C70.2028 94.3897 70.1623 94.5284 70.0673 94.7159Z" fill="#53504D"/>
<path d="M95.5669 151.752C95.5562 151.706 95.6137 151.644 95.72 151.54C95.7242 151.577 95.6797 151.656 95.5669 151.752Z" fill="#FFBE22"/>
<path d="M96.2713 143.92C96.2126 143.94 96.1516 143.879 96.0496 143.767C96.0953 143.756 96.1821 143.797 96.2713 143.92Z" fill="#FFBE22"/>
<path d="M94.5824 152.515C94.5612 152.46 94.6206 152.397 94.7359 152.302C94.7488 152.348 94.7059 152.428 94.5824 152.515Z" fill="#FFBE22"/>
<path d="M95.3154 152.002C95.3062 151.959 95.364 151.896 95.47 151.791C95.473 151.826 95.4277 151.903 95.3154 152.002Z" fill="#FFBE22"/>
<path d="M95.8164 151.501C95.8069 151.456 95.8649 151.394 95.9719 151.29C95.9752 151.327 95.9296 151.405 95.8164 151.501Z" fill="#FFBE22"/>
<path d="M65.8872 148.431C65.9224 148.518 65.8645 148.585 65.7526 148.69C65.7305 148.623 65.7623 148.517 65.8872 148.431Z" fill="#FFBE22"/>
<path d="M93.8518 152.939C93.842 152.894 93.8915 152.855 93.9831 152.792C93.9969 152.829 93.959 152.888 93.8518 152.939Z" fill="#FFBE22"/>
<path d="M89.8223 74.222C89.8293 74.1877 89.9046 74.13 90.047 74.0439C90.0396 74.0766 89.9651 74.1376 89.8223 74.222Z" fill="#53504D"/>
<path d="M185.687 191.465C185.691 191.495 185.645 191.574 185.551 191.702C185.548 191.671 185.593 191.592 185.687 191.465Z" fill="#53504D"/>
<path d="M78.8174 166.736C78.8005 166.693 78.8462 166.635 78.9415 166.546C78.967 166.59 78.93 166.658 78.8174 166.736Z" fill="#53504D"/>
<path d="M130.768 85.3046C130.804 85.2975 130.867 85.3518 130.961 85.4639C130.934 85.4614 130.868 85.4094 130.768 85.3046Z" fill="#53504D"/>
<path d="M131.021 85.5554C131.057 85.5478 131.119 85.6016 131.212 85.7121C131.184 85.7102 131.119 85.6595 131.021 85.5554Z" fill="#53504D"/>
<path d="M61.6711 159.991C61.7237 159.971 61.775 159.983 61.8264 159.996C61.7743 160.005 61.7221 160.014 61.6711 159.991Z" fill="#53504D"/>
<path d="M134.528 161.713C144.82 165.48 153.88 170.989 161.329 178.978C163.39 181.189 165.044 183.683 165.991 186.585C167.408 190.929 166.241 193.542 162.043 195.467C157.996 197.323 153.717 198.454 149.327 198.951C144.628 199.483 139.883 199.979 135.166 199.911C126.946 199.792 118.78 198.879 111.149 195.485C104.156 192.374 99.1082 187.461 97.6864 179.624C96.8831 175.196 98.171 171.196 100.939 167.709C104.762 162.895 109.92 160.406 115.895 159.52C122.256 158.577 128.411 159.614 134.528 161.713Z" fill="#F59E0B"/>
<path d="M85.7084 129.271C84.12 130.072 82.7981 129.729 81.6741 128.586C80.6771 127.572 80.5002 126.347 81.0241 125.031C81.5602 123.684 82.6368 123.086 84.0149 123.003C85.4279 122.917 86.6275 123.673 87.1989 124.942C87.7869 126.249 87.5287 127.441 86.6423 128.512C86.4089 128.794 86.0829 129 85.7084 129.271Z" fill="#262625"/>
<path d="M103.969 124.242C105.964 122.705 107.414 122.617 108.776 123.863C110.074 125.05 110.292 126.972 109.285 128.344C108.303 129.683 106.552 130.084 105.099 129.303C103.515 128.451 102.864 126.733 103.515 125.088C103.621 124.822 103.794 124.583 103.969 124.242Z" fill="#262625"/>
</svg>
